<?xml version="1.0" encoding="UTF-8"?>
<svg id="Layer_2" data-name="Layer 2" xmlns="http://www.w3.org/2000/svg" viewBox="0 0 76.78 76.96">
  <defs>
    <style>
      .cls-1 {
        fill: #fff;
      }
    </style>
  </defs>
  <g id="Layer_2-2" data-name="Layer 2">
    <g id="Layer_2-2" data-name="Layer 2-2">
      <path id="Steam_white" data-name="Steam white" class="cls-1" d="M38.32,0c-9.66,0-18.97,3.64-26.07,10.19C5.15,16.75.78,25.73,0,35.36l20.61,8.53c1.8-1.24,3.94-1.9,6.13-1.89h.61l9.16-13.28v-.19c0-2.87.87-5.67,2.47-8.04,1.6-2.38,3.87-4.23,6.52-5.32s5.57-1.37,8.38-.8,5.39,1.95,7.41,3.98,3.4,4.62,3.95,7.43c.56,2.81.27,5.73-.83,8.37-1.1,2.65-2.96,4.91-5.34,6.5s-5.19,2.44-8.05,2.44h-.33l-13.04,9.32v.51c0,2.7-.99,5.31-2.81,7.32-1.81,2.01-4.31,3.27-7,3.53-2.69.27-5.38-.48-7.56-2.08-2.17-1.61-3.67-3.97-4.19-6.62l-14.73-6.08c1.95,6.88,5.78,13.08,11.06,17.91,5.28,4.82,11.8,8.08,18.83,9.4s14.29.65,20.96-1.93,12.49-6.97,16.8-12.67c4.31-5.71,6.95-12.5,7.61-19.62.66-7.12-.67-14.29-3.86-20.69s-8.1-11.79-14.18-15.56C52.51,2.05,45.5.05,38.34.05l-.03-.05h0ZM24.1,58.34l-4.73-1.96c.69,1.43,1.77,2.63,3.13,3.45,1.35.82,2.92,1.23,4.5,1.18s3.12-.56,4.41-1.47c1.3-.91,2.3-2.18,2.89-3.65s.74-3.08.43-4.63-1.07-2.98-2.17-4.11c-1.11-1.13-2.52-1.92-4.07-2.26s-3.16-.23-4.64.33l4.88,2.02c1.47.61,2.64,1.79,3.25,3.26.61,1.47.6,3.13,0,4.6-.61,1.47-1.79,2.64-3.26,3.25s-3.13.6-4.6,0h-.02ZM59.08,23.17c1.06,1.59,1.63,3.46,1.63,5.37,0,2.56-1.02,5.01-2.83,6.82s-4.26,2.83-6.82,2.83c-1.91,0-3.78-.56-5.37-1.63-1.59-1.06-2.83-2.57-3.56-4.34-.73-1.77-.92-3.71-.55-5.59.37-1.88,1.29-3.6,2.65-4.95,1.35-1.35,3.07-2.27,4.95-2.65,1.88-.37,3.82-.18,5.59.55s3.28,1.97,4.34,3.56l-.03.03ZM45.02,24.51c-.8,1.19-1.22,2.6-1.22,4.03l-.04-.02c0,.96.19,1.91.55,2.79.37.89.9,1.69,1.58,2.37s1.48,1.21,2.37,1.57,1.84.55,2.79.54c1.44,0,2.84-.43,4.03-1.22,1.19-.8,2.12-1.93,2.67-3.26s.69-2.79.41-4.19c-.28-1.41-.97-2.7-1.99-3.72-1.01-1.01-2.31-1.71-3.72-1.99-1.41-.28-2.87-.14-4.19.41-1.33.55-2.46,1.48-3.26,2.67l.02.02Z"/>
    </g>
  </g>
</svg>